<svg width="40" height="40" viewBox="0 0 40 40" xmlns="http://www.w3.org/2000/svg">
    <style>
        .wings { fill: #2196F3; }
        .body { fill: #FFB6C1; }
        .ear { fill: #FF69B4; }
    </style>
    <g transform="translate(2, 2)">
        <!-- Wings -->
        <path class="wings" d="M30 15c0-8.284-6.716-15-15-15-8.284 0-15 6.716-15 15 0 8.284 6.716 15 15 15 8.284 0 15-6.716 15-15z"/>
        <!-- Pig body -->
        <path class="body" d="M25 15c0-5.523-4.477-10-10-10S5 9.477 5 15s4.477 10 10 10 10-4.477 10-10z"/>
        <!-- Left ear -->
        <path class="ear" d="M8 8c0-2.209 1.791-4 4-4s4 1.791 4 4-1.791 4-4 4-4-1.791-4-4z"/>
        <!-- Right ear -->
        <path class="ear" d="M20 8c0-2.209 1.791-4 4-4s4 1.791 4 4-1.791 4-4 4-4-1.791-4-4z"/>
        <!-- Nose -->
        <ellipse cx="15" cy="17" rx="3" ry="2" fill="#ff69b4"/>
        <!-- Left eye -->
        <circle cx="12" cy="13" r="1.2" fill="#000"/>
        <!-- Right eye -->
        <circle cx="18" cy="13" r="1.2" fill="#000"/>
    </g>
</svg>
