<svg xmlns="http://www.w3.org/2000/svg" width="1920" height="1080" viewBox="0 0 1920 1080">
  <defs>
    <linearGradient id="grad1" x1="0%" y1="0%" x2="100%" y2="100%">
      <stop offset="0%" style="stop-color:#2196F3;stop-opacity:0.1" />
      <stop offset="100%" style="stop-color:#64B5F6;stop-opacity:0.1" />
    </linearGradient>
    <pattern id="grid" width="40" height="40" patternUnits="userSpaceOnUse">
      <path d="M 40 0 L 0 0 0 40" fill="none" stroke="rgba(100,181,246,0.1)" stroke-width="1"/>
    </pattern>
    <pattern id="dots" width="20" height="20" patternUnits="userSpaceOnUse">
      <circle cx="10" cy="10" r="1" fill="rgba(33,150,243,0.2)"/>
    </pattern>
  </defs>
  <rect width="100%" height="100%" fill="#ffffff"/>
  <rect width="100%" height="100%" fill="url(#grid)"/>
  <rect width="100%" height="100%" fill="url(#dots)"/>
  <rect width="100%" height="100%" fill="url(#grad1)"/>
  
  <!-- 科技感裝飾元素 -->
  <g transform="translate(100,100)" stroke="#2196F3" stroke-width="1" fill="none">
    <circle cx="0" cy="0" r="50" opacity="0.2"/>
    <circle cx="0" cy="0" r="40" opacity="0.2"/>
    <circle cx="0" cy="0" r="30" opacity="0.2"/>
  </g>
  
  <g transform="translate(1800,900)" stroke="#64B5F6" stroke-width="1" fill="none">
    <circle cx="0" cy="0" r="60" opacity="0.2"/>
    <circle cx="0" cy="0" r="45" opacity="0.2"/>
    <circle cx="0" cy="0" r="30" opacity="0.2"/>
  </g>

  <!-- 飛天小豬和成長趨勢圖 -->
  <g id="growth-animation" transform="translate(1200,300)">
    <!-- 成長趨勢圖 -->
    <g id="chart" opacity="0" class="chart-animation">
      <rect x="0" y="200" width="40" height="50" fill="#E3F2FD"/>
      <rect x="50" y="150" width="40" height="100" fill="#90CAF9"/>
      <rect x="100" y="100" width="40" height="150" fill="#64B5F6"/>
      <rect x="150" y="0" width="40" height="250" fill="#2196F3"/>
    </g>
    
    <!-- 飛天小豬 -->
    <g id="flying-pig" transform="translate(0,0)" class="pig-animation">
      <!-- 身體 -->
      <circle cx="50" cy="50" r="30" fill="#FFB6C1"/>
      <!-- 翅膀 -->
      <path d="M 20 40 Q 0 20 20 0" fill="#90CAF9" class="wing-left"/>
      <path d="M 80 40 Q 100 20 80 0" fill="#90CAF9" class="wing-right"/>
      <!-- 耳朵 -->
      <circle cx="35" cy="35" r="10" fill="#FF69B4"/>
      <circle cx="65" cy="35" r="10" fill="#FF69B4"/>
      <!-- 鼻子 -->
      <circle cx="50" cy="55" r="8" fill="#FF69B4"/>
      <!-- 眼睛 -->
      <circle cx="40" cy="45" r="4" fill="#000"/>
      <circle cx="60" cy="45" r="4" fill="#000"/>
    </g>
  </g>
</svg>
